<svg width="40" height="40" viewBox="0 0 40 40" fill="none" xmlns="http://www.w3.org/2000/svg">
<circle cx="20" cy="20" r="20" fill="#F8F3F3"/>
<path d="M28.3048 15.9787C28.2062 15.5955 28.0127 15.2461 27.7438 14.9654C27.4749 14.6847 27.14 14.4826 26.7727 14.3792C25.4205 14 19.9999 14 19.9999 14C19.9999 14 14.5794 14 13.2272 14.3772C12.8596 14.4802 12.5246 14.6822 12.2556 14.963C11.9867 15.2437 11.7934 15.5933 11.695 15.9766C11.3333 17.3885 11.3333 20.3333 11.3333 20.3333C11.3333 20.3333 11.3333 23.2781 11.695 24.688C11.8943 25.4666 12.4824 26.0797 13.2272 26.2875C14.5794 26.6667 19.9999 26.6667 19.9999 26.6667C19.9999 26.6667 25.4205 26.6667 26.7727 26.2875C27.5194 26.0797 28.1056 25.4666 28.3048 24.688C28.6666 23.2781 28.6666 20.3333 28.6666 20.3333C28.6666 20.3333 28.6666 17.3885 28.3048 15.9787ZM18.2782 23.0361V17.6306L22.7663 20.3132L18.2782 23.0361Z" fill="#C7C3C1"/>
</svg>
