<svg width="40" height="40" viewBox="0 0 40 40" fill="none" xmlns="http://www.w3.org/2000/svg">
<circle cx="20" cy="20" r="20" fill="#F8F3F3"/>
<path d="M20.0057 20.2576C22.3053 20.2569 24.168 18.4073 24.1673 16.1273C24.1665 13.8466 22.3016 11.9993 20.0027 12C17.7039 12.0007 15.8404 13.8503 15.8412 16.1303C15.8441 18.4095 17.7076 20.2561 20.0057 20.2576ZM20.0057 14.4205C20.9582 14.4205 21.7304 15.1864 21.7304 16.131C21.7304 17.0757 20.9582 17.8408 20.0057 17.8408C19.0532 17.8408 18.281 17.0749 18.281 16.1303C18.2825 15.1864 19.054 14.4212 20.0057 14.4205ZM21.6889 23.6264C22.5457 23.4336 23.3631 23.0974 24.1072 22.6332C24.6739 22.2705 24.8371 21.5215 24.4714 20.9595C24.1116 20.4062 23.3713 20.2392 22.806 20.5842C21.0917 21.6473 18.9152 21.6473 17.2009 20.5842C16.6319 20.2304 15.8805 20.3996 15.5222 20.9631C15.1624 21.5274 15.3315 22.2749 15.9013 22.6317C15.902 22.6317 15.9027 22.6325 15.9027 22.6325C16.646 23.096 17.4635 23.4322 18.3196 23.6257L15.9918 25.9343C15.5281 26.4199 15.5496 27.1865 16.04 27.6463C16.511 28.0877 17.2469 28.0877 17.718 27.6463L20.0042 25.3774L22.292 27.6463C22.7682 28.1179 23.5389 28.1179 24.0152 27.6463C24.4907 27.174 24.4907 26.4096 24.0152 25.9373L21.6889 23.6264Z" fill="#C7C3C1"/>
</svg>
